<svg width="64" height="64" viewBox="0 0 64 64" fill="none" xmlns="http://www.w3.org/2000/svg">
<path d="M2.28613 38.8572H61.7147V48C61.7147 51.6373 60.2698 55.1256 57.6979 57.6975C55.126 60.2694 51.6377 61.7143 48.0004 61.7143H16.0004C12.3632 61.7143 8.87488 60.2694 6.30295 57.6975C3.73103 55.1256 2.28613 51.6373 2.28613 48V38.8572Z" stroke="#D6B762" stroke-width="2.57" stroke-linecap="round" stroke-linejoin="round"/>
<path d="M34.2857 11.4285C34.2857 9.00367 33.3225 6.67814 31.6078 4.96353C29.8932 3.24891 27.5677 2.28564 25.1429 2.28564C22.718 2.28564 20.3925 3.24891 18.6779 4.96353C16.9633 6.67814 16 9.00367 16 11.4285V38.8571" stroke="#D6B762" stroke-width="2.57" stroke-linecap="round" stroke-linejoin="round"/>
<path d="M34.2861 20.5713V25.1427" stroke="#D6B762" stroke-width="2.57" stroke-linecap="round" stroke-linejoin="round"/>
</svg>
