<svg width="64" height="64" viewBox="0 0 64 64" fill="none" xmlns="http://www.w3.org/2000/svg">
<path d="M13.714 25.1428H36.5712C37.7836 25.1428 38.9463 25.6245 39.8036 26.4818C40.6609 27.3391 41.1426 28.5018 41.1426 29.7143V52.5714C41.1426 54.9962 40.1793 57.3218 38.4647 59.0364C36.7501 60.751 34.4246 61.7143 31.9997 61.7143H18.2854C15.8606 61.7143 13.5351 60.751 11.8205 59.0364C10.1058 57.3218 9.14258 54.9962 9.14258 52.5714V29.7143C9.14258 28.5018 9.62421 27.3391 10.4815 26.4818C11.3388 25.6245 12.5016 25.1428 13.714 25.1428V25.1428Z" stroke="#D6B762" stroke-width="2.57" stroke-linecap="round" stroke-linejoin="round"/>
<path d="M41.1426 29.7141H43.4283C46.4593 29.7141 49.3662 30.9182 51.5095 33.0615C53.6528 35.2047 54.8569 38.1116 54.8569 41.1427C54.8569 44.1737 53.6528 47.0806 51.5095 49.2239C49.3662 51.3672 46.4593 52.5713 43.4283 52.5713H41.1426" stroke="#D6B762" stroke-width="2.57" stroke-linecap="round" stroke-linejoin="round"/>
<path d="M18.2852 2.28564V11.4285" stroke="#D6B762" stroke-width="2.57" stroke-linecap="round" stroke-linejoin="round"/>
<path d="M32 2.28564V11.4285" stroke="#D6B762" stroke-width="2.57" stroke-linecap="round" stroke-linejoin="round"/>
</svg>
