<svg width="21" height="21" viewBox="0 0 21 21" fill="none" xmlns="http://www.w3.org/2000/svg">
<path d="M10.5 3.9375C6.125 3.9375 2.38875 6.65875 0.875 10.5C2.38875 14.3412 6.125 17.0625 10.5 17.0625C14.875 17.0625 18.6112 14.3412 20.125 10.5C18.6112 6.65875 14.875 3.9375 10.5 3.9375ZM10.5 14.875C8.085 14.875 6.125 12.915 6.125 10.5C6.125 8.085 8.085 6.125 10.5 6.125C12.915 6.125 14.875 8.085 14.875 10.5C14.875 12.915 12.915 14.875 10.5 14.875ZM10.5 7.875C9.0475 7.875 7.875 9.0475 7.875 10.5C7.875 11.9525 9.0475 13.125 10.5 13.125C11.9525 13.125 13.125 11.9525 13.125 10.5C13.125 9.0475 11.9525 7.875 10.5 7.875Z" fill="white"/>
</svg>
