<svg width="64" height="64" viewBox="0 0 64 64" fill="none" xmlns="http://www.w3.org/2000/svg">
<path d="M11.429 36.5713L3.29187 48.2284C2.92482 48.9433 2.75269 49.7422 2.79281 50.5448C2.83294 51.3474 3.08391 52.1252 3.52044 52.7999C3.93219 53.4587 4.50504 54.0017 5.18492 54.3776C5.8648 54.7535 6.62927 54.95 7.40615 54.9484H56.5947C57.3716 54.95 58.1361 54.7535 58.816 54.3776C59.4958 54.0017 60.0687 53.4587 60.4804 52.7999C60.8817 52.1049 61.0929 51.3166 61.0929 50.5141C61.0929 49.7117 60.8817 48.9234 60.4804 48.2284L52.5719 36.5713" stroke="#D6B762" stroke-width="2.57" stroke-linecap="round" stroke-linejoin="round"/>
<path d="M16.0001 9.14282C14.7877 9.14282 13.625 9.62445 12.7677 10.4818C11.9103 11.3391 11.4287 12.5018 11.4287 13.7143V36.5714H52.5716V13.7143C52.5716 12.5018 52.0899 11.3391 51.2326 10.4818C50.3753 9.62445 49.2126 9.14282 48.0001 9.14282H16.0001Z" stroke="#D6B762" stroke-width="2.57" stroke-linecap="round" stroke-linejoin="round"/>
</svg>
