<svg width="122" height="12" viewBox="0 0 122 12" fill="none" xmlns="http://www.w3.org/2000/svg">
<g clip-path="url(#clip0_345_561)">
<path d="M57.4943 7.99536C57.6911 8.4247 58.2168 8.92488 58.7582 9.17605L58.0681 10.5628C57.0838 10.1217 56.3445 9.36496 56 8.59322L57.4943 7.99536ZM64.7007 7.90091C64.7007 9.61828 63.2724 11.0995 60.6294 11.0995C60.3676 11.1001 60.1061 11.0843 59.8465 11.0523L60.5847 9.57105C61.9638 9.58715 63.0453 8.94098 63.0453 7.94813C63.0453 6.95528 62.0107 6.57747 60.0567 6.04186C57.7594 5.41181 56.2483 4.73452 56.3143 2.82825C56.3635 1.03253 57.8902 -0.19646 60.2704 -0.19646C60.7646 -0.201862 61.2571 -0.138231 61.7322 -0.00755566L60.843 1.35024C60.6954 1.33521 60.4818 1.31911 60.3174 1.31911C58.6273 1.31911 57.9864 2.10695 57.9864 2.87869C57.9864 3.72986 58.7906 4.10768 60.6137 4.59606C62.9447 5.22289 64.7007 5.91628 64.7007 7.89769V7.90091Z" fill="white"/>
<path d="M73.8452 -0.0859375V1.41032H65.5215V-0.0859375H73.8452ZM68.9038 3.55274H70.4629V10.9417H68.9038V3.55274Z" fill="white"/>
<path d="M83.1361 10.9417H81.4125L78.2438 2.16703L75.0751 10.9417H73.3516L77.4721 -0.0859375H78.9988L83.1361 10.9417Z" fill="white"/>
<path d="M88.8195 7.0186H86.1072V10.9417H84.5312V5.52234H88.8329C90.212 5.52234 90.9838 4.54559 90.9838 3.47438C90.9838 2.40317 90.212 1.41032 88.8329 1.41032H84.5312V-0.0859375H88.8329C91.1639 -0.0859375 92.5922 1.50477 92.5922 3.47438C92.5922 4.92341 91.8092 6.1685 90.4413 6.72021L92.921 10.9417H91.1314L88.8195 7.0186Z" fill="white"/>
<path d="M102.064 -0.0859375V1.41032H93.7402V-0.0859375H102.064ZM97.1225 3.55274H98.6817V10.9417H97.1225V3.55274Z" fill="white"/>
<path d="M105.117 1.69369H103.541V-0.0859375H105.117V1.69369ZM110.683 6.54632L112.209 7.19033C111.948 9.72667 110.196 11.0544 107.892 11.0544C105.397 11.0544 103.541 9.47872 103.541 6.50124V3.23825H105.117V6.45187C105.117 8.68874 106.284 9.55601 107.892 9.55601C109.5 9.55601 110.65 8.72093 110.683 6.54632ZM112.243 -0.0859375V5.33343L110.683 4.68942V-0.0859375H112.243Z" fill="white"/>
<path d="M122.356 3.47438C122.356 5.42789 120.911 7.01645 118.597 7.01645H115.854V10.9396H114.295V5.52234H118.597C119.976 5.52234 120.731 4.54559 120.731 3.47438C120.731 2.40317 119.991 1.41032 118.597 1.41032H114.295V-0.0859375H118.597C120.944 -0.0859375 122.356 1.50477 122.356 3.47438Z" fill="white"/>
<path d="M5.57594 7.19714V11H4.42284V7.19714L0 0H1.25152L5.04253 6.17571L8.83354 0H10L5.57594 7.19714Z" fill="white"/>
<path d="M14.9312 10.2822C14.0351 9.82544 13.2894 9.14365 12.7761 8.31181C12.2673 7.4529 12 6.48471 12 5.50001C12 4.51531 12.2673 3.54712 12.7761 2.68821C13.2894 1.85673 14.0352 1.17534 14.9312 0.718992C15.8776 0.248162 16.9304 0.00145527 17.9995 6.41872e-06C19.0687 -0.00144244 20.1223 0.242409 21.07 0.710672C21.9621 1.16971 22.7044 1.85116 23.2163 2.68108C23.73 3.54127 24 4.51254 24 5.5006C24 6.48867 23.73 7.45994 23.2163 8.32013C22.7044 9.14973 21.9621 9.83078 21.07 10.2893C20.1222 10.7574 19.0688 11.0012 17.9997 11C16.9306 10.9988 15.8778 10.7525 14.9312 10.2822ZM20.4571 9.40159C21.1761 9.02702 21.7709 8.47074 22.1752 7.79485C22.5822 7.09151 22.7956 6.30251 22.7956 5.5006C22.7956 4.6987 22.5822 3.90969 22.1752 3.20636C21.7723 2.53068 21.1787 1.97436 20.4609 1.59961C19.706 1.21883 18.8636 1.01966 18.0082 1.01966C17.1527 1.01966 16.3103 1.21883 15.5554 1.59961C14.8329 1.97379 14.2339 2.5299 13.8248 3.20636C13.4122 3.90798 13.1956 4.69765 13.1956 5.5006C13.1956 6.30356 13.4122 7.09322 13.8248 7.79485C14.2343 8.47104 14.8332 9.02707 15.5554 9.40159C16.3106 9.78157 17.1528 9.98028 18.0082 9.98028C18.8635 9.98028 19.7057 9.78157 20.4609 9.40159H20.4571Z" fill="white"/>
<path d="M29.0567 9.7847C28.3522 8.9745 28 7.79556 28 6.24788V0H29.0342V6.20113C29.0342 7.46916 29.2891 8.4144 29.7989 9.03683C30.3087 9.65926 31.0456 9.97087 32.0096 9.97167C32.9829 9.97167 33.7244 9.66006 34.2342 9.03683C34.744 8.4136 34.9989 7.46837 34.9989 6.20113V0H36V6.24788C36 7.79636 35.6499 8.9753 34.9497 9.7847C34.2496 10.5941 33.2695 10.9992 32.0096 11C30.7455 11 29.7611 10.5949 29.0567 9.7847Z" fill="white"/>
<path d="M45.8408 11L43.551 7.46429C43.2848 7.4962 43.0173 7.51194 42.7496 7.51143H40.059V11H39V0H42.7496C44.028 0 45.0298 0.335239 45.7549 1.00572C46.48 1.67619 46.8426 2.59809 46.8426 3.77143C46.8426 4.63128 46.6444 5.35655 46.2481 5.94725C45.8518 6.53795 45.2867 6.96465 44.5528 7.22736L47 10.9988L45.8408 11ZM44.9964 5.8022C45.5204 5.31868 45.7828 4.64296 45.7835 3.77505C45.7835 2.88861 45.5212 2.20362 44.9964 1.72011C44.4717 1.23659 43.7132 0.998058 42.7209 1.00451H40.059V6.52022H42.7209C43.7132 6.52103 44.4717 6.28048 44.9964 5.79857V5.8022Z" fill="white"/>
</g>
<defs>
<clipPath id="clip0_345_561">
<rect width="122" height="12" fill="white"/>
</clipPath>
</defs>
</svg>
