<svg width="169" height="50" viewBox="0 0 169 50" fill="none" xmlns="http://www.w3.org/2000/svg">
<path d="M8.89775 16.4621L4.16662 5.52294V18.143H0.37634V0H5.91392L10.8063 11.6329L15.6719 0H21.1019V18.143H17.1504V5.38954L12.4192 16.4621H8.89775Z" fill="white"/>
<path d="M32.7933 18.6499C32.1481 20.482 31.4133 21.7183 30.589 22.3586C29.7825 22.9989 28.5639 23.3191 26.9331 23.3191H25.132V19.984H26.503C27.1123 19.984 27.5962 19.8951 27.9546 19.7172C28.313 19.5393 28.5908 19.2014 28.7879 18.7033L28.8417 18.5432L23.3579 5.06937H27.6589L30.8847 13.9274L33.6803 5.06937H37.6588L32.7933 18.6499Z" fill="white"/>
<path d="M44.6759 15.4749C45.5003 15.4749 46.1185 15.3593 46.5307 15.1281C46.9608 14.879 47.1759 14.5411 47.1759 14.1142C47.1759 13.6695 47.0235 13.3493 46.7189 13.1537C46.4142 12.9402 45.8945 12.8335 45.1598 12.8335H43.063V10.2988H45.0791C45.7422 10.2988 46.2171 10.201 46.5038 10.0053C46.8085 9.79189 46.9608 9.48061 46.9608 9.07151C46.9608 8.68019 46.7816 8.36001 46.4232 8.11099C46.0648 7.86197 45.5271 7.73746 44.8103 7.73746C43.9501 7.73746 43.287 7.92423 42.8211 8.29776C42.373 8.67129 42.0684 9.18712 41.9071 9.84525L38.4932 9.20491C38.762 7.8175 39.443 6.74137 40.5362 5.97652C41.6293 5.19388 43.054 4.80256 44.8103 4.80256C46.6741 4.80256 48.0988 5.14941 49.0844 5.84312C50.088 6.51903 50.5898 7.47065 50.5898 8.69797C50.5898 9.32053 50.4106 9.87193 50.0522 10.3522C49.6938 10.8147 49.174 11.1615 48.4931 11.3927C49.2099 11.5528 49.7834 11.8641 50.2135 12.3266C50.6615 12.7713 50.8855 13.4294 50.8855 14.301C50.8855 15.5994 50.33 16.6133 49.2189 17.3426C48.1257 18.0541 46.6114 18.4098 44.6759 18.4098C42.7584 18.4098 41.2709 18.0007 40.2136 17.1825C39.1742 16.3643 38.5648 15.2259 38.3856 13.7673L41.8533 13.3138C41.9429 13.9719 42.2118 14.4966 42.6598 14.8879C43.1257 15.2793 43.7978 15.4749 44.6759 15.4749Z" fill="white"/>
<path d="M65.1425 12.4333H56.2717C56.3433 13.4472 56.6301 14.2031 57.1319 14.7012C57.6337 15.1992 58.2967 15.4482 59.1211 15.4482C59.9096 15.4482 60.492 15.2704 60.8684 14.9146C61.2626 14.5411 61.5225 14.1676 61.6479 13.794L65.0619 14.4344C64.9364 14.9324 64.7214 15.4216 64.4167 15.9018C64.13 16.3821 63.7447 16.809 63.2608 17.1825C62.777 17.5382 62.1856 17.8317 61.4867 18.063C60.8057 18.2942 60.0082 18.4098 59.0942 18.4098C57.0512 18.4098 55.4473 17.8051 54.2824 16.5955C53.1355 15.386 52.562 13.7229 52.562 11.6062C52.562 10.4856 52.7323 9.4984 53.0728 8.64461C53.4133 7.79082 53.8703 7.07933 54.4437 6.51014C55.0351 5.94095 55.7251 5.51405 56.5136 5.22945C57.3021 4.94486 58.1444 4.80256 59.0404 4.80256C61.0476 4.80256 62.5619 5.42512 63.5834 6.67022C64.6228 7.91533 65.1425 9.54287 65.1425 11.5528V12.4333ZM59.0404 7.76414C58.3953 7.76414 57.8308 7.95091 57.3469 8.32444C56.8631 8.68018 56.5315 9.26716 56.3523 10.0854H61.5135C61.4419 9.32053 61.191 8.74244 60.7609 8.35112C60.3308 7.9598 59.7573 7.76414 59.0404 7.76414Z" fill="white"/>
<path d="M71.4401 18.143H67.6499V5.06937H71.3864V13.0736L76.2788 5.06937H80.2304V18.143H76.4938V10.0587L71.4401 18.143ZM73.9401 4.24226C72.1839 4.24226 70.9742 3.85984 70.3111 3.09498C69.648 2.31234 69.3075 1.30736 69.2896 0.0800417H72.2735C72.2914 0.720383 72.4258 1.19175 72.6767 1.49413C72.9455 1.77873 73.3666 1.92102 73.9401 1.92102C74.4957 1.92102 74.8899 1.77873 75.1229 1.49413C75.3559 1.19175 75.4813 0.720383 75.4992 0.0800417H78.5368C78.5368 1.30736 78.1963 2.31234 77.5153 3.09498C76.8523 3.85984 75.6605 4.24226 73.9401 4.24226Z" fill="white"/>
<path d="M3.79028 44.8239H0V31.7503H3.73652V39.7545L8.62894 31.7503H12.5805V44.8239H8.84399V36.7396L3.79028 44.8239Z" fill="white"/>
<path d="M24.0553 39.8879L27.5499 40.3415C27.2811 41.7823 26.6359 42.9385 25.6144 43.81C24.6109 44.6638 23.2489 45.0907 21.5285 45.0907C19.5572 45.0907 17.9801 44.5126 16.7973 43.3565C15.6145 42.2003 15.0232 40.5194 15.0232 38.3138C15.0232 37.211 15.1844 36.2327 15.507 35.3789C15.8296 34.5251 16.2776 33.8136 16.8511 33.2444C17.4246 32.6752 18.1145 32.2394 18.921 31.937C19.7274 31.6346 20.6055 31.4835 21.5553 31.4835C22.4872 31.4835 23.3026 31.608 24.0016 31.857C24.7005 32.106 25.2919 32.4351 25.7757 32.8442C26.2596 33.2533 26.6449 33.7424 26.9316 34.3116C27.2184 34.863 27.4155 35.4411 27.523 36.0459L24.0822 36.6862C23.9567 36.1348 23.7059 35.6546 23.3295 35.2455C22.9532 34.8186 22.3797 34.6051 21.6091 34.6051C20.7489 34.6051 20.0679 34.9253 19.5661 35.5656C19.0643 36.1882 18.8134 37.0864 18.8134 38.2604C18.8134 39.4522 19.0464 40.3682 19.5124 41.0085C19.9962 41.6489 20.6772 41.969 21.5553 41.969C22.3259 41.969 22.8994 41.7734 23.2758 41.3821C23.67 40.9908 23.9299 40.4927 24.0553 39.8879Z" fill="white"/>
<path d="M28.7182 35.0854V31.7503H40.8148V35.0854H36.702V44.8239H32.8311V35.0854H28.7182Z" fill="white"/>
<path d="M48.5974 45.0907C46.5544 45.0907 44.9326 44.4859 43.7319 43.2764C42.5312 42.0491 41.9308 40.3771 41.9308 38.2604C41.9308 36.1437 42.5312 34.4895 43.7319 33.2978C44.9326 32.0882 46.5544 31.4835 48.5974 31.4835C50.6763 31.4835 52.3071 32.0882 53.4899 33.2978C54.6726 34.4895 55.264 36.1437 55.264 38.2604C55.264 40.3771 54.6726 42.0491 53.4899 43.2764C52.3071 44.4859 50.6763 45.0907 48.5974 45.0907ZM48.5974 41.9424C49.4756 41.9424 50.1745 41.6311 50.6942 41.0085C51.2139 40.386 51.4737 39.4699 51.4737 38.2604C51.4737 37.0509 51.2139 36.1437 50.6942 35.539C50.1745 34.9342 49.4756 34.6318 48.5974 34.6318C47.7372 34.6318 47.0383 34.9342 46.5007 35.539C45.981 36.1259 45.7211 37.0331 45.7211 38.2604C45.7211 39.4699 45.981 40.386 46.5007 41.0085C47.0383 41.6311 47.7372 41.9424 48.5974 41.9424Z" fill="white"/>
<path d="M57.7268 50V31.7503H61.4902V33.2978C61.8845 32.7641 62.4221 32.3284 63.1031 31.9904C63.7841 31.6524 64.5637 31.4835 65.4418 31.4835C66.2303 31.4835 66.9561 31.6258 67.6192 31.9104C68.3002 32.1949 68.8826 32.6218 69.3665 33.191C69.8683 33.7424 70.2625 34.4361 70.5493 35.2721C70.836 36.1081 70.9794 37.0776 70.9794 38.1804C70.9794 39.3187 70.827 40.3237 70.5224 41.1953C70.2177 42.0491 69.7966 42.7695 69.259 43.3565C68.7213 43.9256 68.0851 44.3614 67.3504 44.6638C66.6156 44.9484 65.8271 45.0907 64.9848 45.0907C64.268 45.0907 63.6139 44.9929 63.0225 44.7972C62.449 44.5838 61.9651 44.2903 61.5709 43.9168V50H57.7268ZM61.5709 39.3276C61.5709 40.0747 61.8218 40.6884 62.3236 41.1686C62.8253 41.6489 63.4974 41.889 64.3397 41.889C65.1999 41.889 65.8719 41.5777 66.3558 40.9552C66.8576 40.3148 67.1085 39.4166 67.1085 38.2604C67.1085 37.1398 66.8576 36.2682 66.3558 35.6457C65.8719 35.0053 65.1999 34.6852 64.3397 34.6852C63.5153 34.6852 62.8433 34.9342 62.3236 35.4322C61.8218 35.9303 61.5709 36.5884 61.5709 37.4066V39.3276Z" fill="white"/>
<path d="M77.2679 44.8239H73.4777V31.7503H77.2142V39.7545L82.1066 31.7503H86.0582V44.8239H82.3217V36.7396L77.2679 44.8239Z" fill="white"/>
<path d="M93.0975 44.8239H89.3073V31.7503H93.0438V39.7545L97.9362 31.7503H101.888V44.8239H98.1513V36.7396L93.0975 44.8239Z" fill="white"/>
<path d="M111 44.8239V26.6809H119.494C121.412 26.6809 122.908 27.09 123.983 27.9082C125.077 28.7086 125.623 29.9626 125.623 31.6702C125.623 32.4706 125.417 33.2444 125.005 33.9915C124.593 34.7207 123.849 35.2633 122.774 35.619C124.01 35.9036 124.88 36.4194 125.381 37.1665C125.883 37.9136 126.134 38.8118 126.134 39.8613C126.134 41.5155 125.569 42.7606 124.44 43.5966C123.311 44.4148 121.681 44.8239 119.548 44.8239H111ZM118.93 30.016H115.032V34.0448H118.876C119.862 34.0448 120.552 33.867 120.946 33.5112C121.34 33.1555 121.537 32.6396 121.537 31.9637C121.537 31.3056 121.34 30.8164 120.946 30.4963C120.57 30.1761 119.897 30.016 118.93 30.016ZM119.064 37.2999H115.032V41.4888H119.091C120.148 41.4888 120.892 41.3198 121.322 40.9819C121.752 40.6261 121.967 40.0925 121.967 39.381C121.967 38.6695 121.743 38.1448 121.295 37.8068C120.865 37.4689 120.122 37.2999 119.064 37.2999Z" fill="white"/>
<path d="M137.766 43.143L133.035 32.2038V44.8239H129.244V26.6809H134.782L139.674 38.3138L144.54 26.6809H149.97V44.8239H146.018V32.0704L141.287 43.143H137.766Z" fill="white"/>
<path d="M161.231 29.9893C160.066 29.9893 159.17 30.2472 158.543 30.7631C157.934 31.2611 157.522 31.9459 157.307 32.8175L153.194 32.1505C153.552 30.3895 154.403 28.9932 155.747 27.9616C157.109 26.9299 158.964 26.4141 161.312 26.4141C163.606 26.4141 165.389 26.8588 166.661 27.7481C167.934 28.6375 168.57 29.936 168.57 31.6435C168.57 32.6041 168.319 33.4223 167.817 34.0982C167.315 34.7563 166.554 35.2366 165.532 35.539C166.625 35.7702 167.477 36.2149 168.086 36.873C168.695 37.5311 169 38.4383 169 39.5944C169 41.2487 168.355 42.5827 167.065 43.5966C165.792 44.5927 163.839 45.0907 161.204 45.0907C158.785 45.0907 156.876 44.6016 155.479 43.6233C154.099 42.6272 153.292 41.1864 153.059 39.301L157.118 38.6873C157.28 39.5589 157.701 40.2526 158.382 40.7684C159.063 41.2665 160.022 41.5155 161.258 41.5155C162.441 41.5155 163.337 41.3376 163.946 40.9819C164.574 40.6083 164.887 40.048 164.887 39.301C164.887 38.6073 164.636 38.1092 164.134 37.8068C163.651 37.4867 162.862 37.3266 161.769 37.3266H158.973V33.9915H161.823C162.79 33.9915 163.471 33.8314 163.866 33.5112C164.278 33.1732 164.484 32.6841 164.484 32.0438C164.484 31.3856 164.215 30.8787 163.677 30.5229C163.14 30.1672 162.324 29.9893 161.231 29.9893Z" fill="white"/>
</svg>
