<svg width="24" height="24" viewBox="0 0 24 24" fill="none" xmlns="http://www.w3.org/2000/svg">
<rect width="24" height="24" rx="3" fill="#F9F9F9"/>
<path fill-rule="evenodd" clip-rule="evenodd" d="M20.4261 7.69288C20.5573 7.27235 20.4261 6.96665 19.8459 6.96665H17.9164C17.4297 6.96665 17.205 7.23433 17.0739 7.52064C17.0739 7.52064 16.0813 9.96626 14.6953 11.5518C14.2458 12.0104 14.0399 12.1632 13.7964 12.1632C13.6652 12.1632 13.4965 12.0104 13.4965 11.5902V7.67312C13.4965 7.17654 13.3469 6.94727 12.9346 6.94727H9.90032C9.60042 6.94727 9.41326 7.17654 9.41326 7.40582C9.41326 7.88338 10.1063 7.99821 10.1811 9.33547V12.2411C10.1811 12.8715 10.0705 12.9867 9.82516 12.9867C9.16974 12.9867 7.57779 10.5221 6.62284 7.71376C6.43716 7.15753 6.24852 6.94727 5.76147 6.94727H3.81363C3.25178 6.94727 3.1582 7.21457 3.1582 7.50126C3.1582 8.01722 3.81362 10.6153 6.21094 14.0541C7.80289 16.4028 10.0691 17.6651 12.1105 17.6651C13.3469 17.6651 13.4965 17.3784 13.4965 16.9008V15.124C13.4965 14.551 13.6088 14.4556 14.0023 14.4556C14.2831 14.4556 14.7889 14.6081 15.9314 15.7354C17.2422 17.0727 17.467 17.6841 18.1975 17.6841H20.1266C20.6884 17.6841 20.9508 17.3974 20.8008 16.8434C20.6324 16.2894 19.9954 15.4872 19.1713 14.532C18.7218 13.9974 18.0476 13.405 17.8416 13.1183C17.5609 12.7362 17.6357 12.5834 17.8416 12.2396C17.8229 12.2396 20.183 8.83889 20.4261 7.69139" fill="#333333"/>
</svg>
