<svg width="24" height="15" viewBox="0 0 24 15" fill="none" xmlns="http://www.w3.org/2000/svg">
<path fill-rule="evenodd" clip-rule="evenodd" d="M23.2343 1.25734C23.4092 0.696634 23.2343 0.289031 22.4607 0.289031H19.8881C19.2392 0.289031 18.9395 0.645932 18.7646 1.02769C18.7646 1.02769 17.4413 4.28851 15.5933 6.40257C14.994 7.01397 14.7194 7.21777 14.3947 7.21777C14.2198 7.21777 13.9948 7.01397 13.9948 6.45377V1.23099C13.9948 0.568885 13.7954 0.263184 13.2457 0.263184H9.19994C8.80008 0.263184 8.55053 0.568886 8.55053 0.874587C8.55053 1.51134 9.47453 1.66444 9.57425 3.44745V7.32166C9.57425 8.16222 9.42688 8.31581 9.09972 8.31581C8.22583 8.31581 6.10323 5.02965 4.82996 1.28517C4.58239 0.543534 4.33088 0.263184 3.68147 0.263184H1.08435C0.335221 0.263184 0.210449 0.619587 0.210449 1.00184C0.210449 1.68979 1.08434 5.15392 4.28077 9.73895C6.40337 12.8705 9.42492 14.5536 12.1468 14.5536C13.7954 14.5536 13.9948 14.1714 13.9948 13.5346V11.1656C13.9948 10.4015 14.1446 10.2743 14.6693 10.2743C15.0436 10.2743 15.718 10.4776 17.2414 11.9808C18.9891 13.7638 19.2888 14.579 20.2629 14.579H22.835C23.5841 14.579 23.9339 14.1967 23.7339 13.4581C23.5094 12.7194 22.6601 11.6497 21.5612 10.3762C20.9619 9.66339 20.063 8.87354 19.7884 8.49128C19.4141 7.98178 19.5138 7.77798 19.7884 7.31968C19.7633 7.31968 22.9101 2.78535 23.2343 1.25535" fill="white"/>
</svg>

