<svg width="25" height="24" viewBox="0 0 25 24" fill="none" xmlns="http://www.w3.org/2000/svg">
<rect x="0.25" width="24" height="24" rx="3" fill="#F9F9F9"/>
<path d="M15.2577 5.98427C16.0548 5.98665 16.8185 6.30433 17.3821 6.86793C17.9457 7.43153 18.2634 8.19525 18.2657 8.99229V15.0077C18.2634 15.8048 17.9457 16.5685 17.3821 17.1321C16.8185 17.6957 16.0548 18.0134 15.2577 18.0157H9.24229C8.44525 18.0134 7.68153 17.6957 7.11793 17.1321C6.55433 16.5685 6.23665 15.8048 6.23427 15.0077V8.99229C6.23665 8.19525 6.55433 7.43153 7.11793 6.86793C7.68153 6.30433 8.44525 5.98665 9.24229 5.98427H15.2577ZM15.2577 4.78125H9.24229C6.92617 4.78125 5.03125 6.67617 5.03125 8.99229V15.0077C5.03125 17.3238 6.92617 19.2188 9.24229 19.2188H15.2577C17.5738 19.2188 19.4688 17.3238 19.4688 15.0077V8.99229C19.4688 6.67617 17.5738 4.78125 15.2577 4.78125Z" fill="#333333"/>
<path d="M16.16 8.99219C15.9816 8.99219 15.8071 8.93927 15.6587 8.84012C15.5103 8.74097 15.3947 8.60004 15.3264 8.43516C15.2581 8.27027 15.2402 8.08884 15.275 7.91381C15.3099 7.73877 15.3958 7.57799 15.522 7.45179C15.6482 7.3256 15.809 7.23966 15.984 7.20484C16.159 7.17002 16.3405 7.18789 16.5054 7.25619C16.6702 7.32448 16.8112 7.44014 16.9103 7.58853C17.0095 7.73692 17.0624 7.91138 17.0624 8.08984C17.0626 8.20841 17.0395 8.32587 16.9942 8.43546C16.949 8.54505 16.8825 8.64463 16.7987 8.72847C16.7148 8.81231 16.6153 8.87876 16.5057 8.92402C16.3961 8.96928 16.2786 8.99244 16.16 8.99219ZM12.25 9.59354C12.7259 9.59354 13.1912 9.73467 13.5869 9.99908C13.9826 10.2635 14.2911 10.6393 14.4732 11.079C14.6553 11.5187 14.703 12.0026 14.6101 12.4693C14.5173 12.9361 14.2881 13.3649 13.9516 13.7014C13.615 14.038 13.1862 14.2672 12.7195 14.36C12.2527 14.4529 11.7688 14.4052 11.3291 14.2231C10.8894 14.0409 10.5136 13.7325 10.2492 13.3368C9.98477 12.9411 9.84364 12.4758 9.84364 11.9999C9.84433 11.3619 10.0981 10.7502 10.5492 10.2991C11.0003 9.84796 11.612 9.59422 12.25 9.59354ZM12.25 8.39052C11.5361 8.39052 10.8383 8.6022 10.2447 8.99881C9.65118 9.39541 9.18856 9.95912 8.91537 10.6186C8.64219 11.2782 8.57071 12.0039 8.70998 12.704C8.84925 13.4042 9.19301 14.0473 9.69779 14.5521C10.2026 15.0569 10.8457 15.4006 11.5458 15.5399C12.246 15.6792 12.9717 15.6077 13.6312 15.3345C14.2908 15.0613 14.8545 14.5987 15.2511 14.0052C15.6477 13.4116 15.8594 12.7138 15.8594 11.9999C15.8594 11.0426 15.4791 10.1246 14.8022 9.44768C14.1253 8.77079 13.2073 8.39052 12.25 8.39052Z" fill="#333333"/>
</svg>
