<svg width="75" height="64" viewBox="0 0 75 64" fill="none" xmlns="http://www.w3.org/2000/svg">
<path d="M16.4553 22.8572H8.58135C7.18915 22.8572 5.85396 23.3388 4.86952 24.1961C3.88508 25.0534 3.33203 26.2162 3.33203 27.4286V36.5715C3.33203 37.7839 3.88508 38.9466 4.86952 39.804C5.85396 40.6613 7.18915 41.1429 8.58135 41.1429H16.4553V22.8572Z" stroke="#D6B762" stroke-width="2.57" stroke-linecap="round" stroke-linejoin="round"/>
<path d="M16.4551 41.1428L36.9799 53.9885C37.7404 54.4467 38.6263 54.7219 39.5481 54.7861C40.4699 54.8503 41.3948 54.7013 42.2292 54.3542C43.1342 54.0002 43.9054 53.4301 44.4536 52.7101C45.0017 51.99 45.3043 51.1494 45.3263 50.2856V13.7142C45.3488 12.8933 45.1169 12.0822 44.6551 11.3663C44.1932 10.6504 43.5185 10.056 42.7017 9.64564C41.8673 9.29854 40.9423 9.14956 40.0206 9.21378C39.0988 9.278 38.2128 9.55314 37.4524 10.0114L16.4551 22.8571" stroke="#D6B762" stroke-width="2.57" stroke-linecap="round" stroke-linejoin="round"/>
<path d="M55.8252 25.1428C57.6501 27.0641 58.586 29.5094 58.4499 32C58.586 34.4906 57.6501 36.9358 55.8252 38.8571" stroke="#D6B762" stroke-width="2.57" stroke-linecap="round" stroke-linejoin="round"/>
</svg>
